Coordinates
version=1
nRows=8
nColumns=36
inDegrees=yes

Units are S.I. units (second, meters, Newtons, ...)
If the header above contains a line with 'inDegrees', this indicates whether rotational values are in degrees (yes) or radians (no).

endheader
time	pelvis_tilt	pelvis_list	pelvis_rotation	pelvis_tx	pelvis_ty	pelvis_tz	hip_flexion_r	hip_adduction_r	hip_rotation_r	knee_angle_r	knee_angle_r_beta	ankle_angle_r	subtalar_angle_r	mtp_angle_r	hip_flexion_l	hip_adduction_l	hip_rotation_l	knee_angle_l	knee_angle_l_beta	ankle_angle_l	subtalar_angle_l	mtp_angle_l	lumbar_extension	lumbar_bending	lumbar_rotation	arm_flex_r	arm_add_r	arm_rot_r	elbow_flex_r	pro_sup_r	arm_flex_l	arm_add_l	arm_rot_l	elbow_flex_l	pro_sup_l
      3.49000000	    -11.52607678	      0.82908443	     -0.67883586	     -0.53861607	      0.57052612	     -0.61829100	     99.55390220	     -6.88224769	      6.56293491	     96.30688593	      1.68087225	     18.14147830	      1.50147020	     -7.49999972	     99.68284337	     -9.92935851	      0.86614766	     95.83990549	      1.67272191	     14.91399561	     -4.40580054	     -7.49999972	    -26.35495424	      1.64938248	     -1.85891409	     17.41048718	    -10.73977235	     -4.95750641	    122.74921007	    103.09819932	     19.56337415	     -6.86892554	     -6.48232798	    122.15816038	     99.52513478
      3.50000000	    -12.58336901	      1.01294952	     -0.57967726	     -0.53126566	      0.57210729	     -0.61783903	    100.08816728	     -7.40451614	      6.46472240	     96.55111785	      1.68513490	     19.38652941	      3.14561807	     -7.49999973	    100.03263041	    -10.24682238	      0.56320160	     95.98867620	      1.67531844	     16.39426063	     -2.58978594	     -7.49999973	    -25.98659114	      1.34394237	     -2.28995315	     17.94360139	    -10.88973563	     -4.45648742	    122.67119056	    103.34043840	     19.99574091	     -7.23144454	     -6.92044387	    122.56078136	     99.83809042
      3.51000000	    -13.86093258	      1.17114117	     -0.53249218	     -0.52394928	      0.57317920	     -0.61714593	    100.83410597	     -7.80131811	      6.25199419	     96.69085496	      1.68757378	     19.92581567	      3.28926231	     -7.49999973	    100.65325049	    -10.56171485	      0.24939736	     96.05061600	      1.67639950	     16.75651419	     -2.41303557	     -7.49999973	    -25.27012217	      0.96435732	     -2.31957378	     18.03668817	    -11.15955402	     -4.23911900	    122.88769349	    103.42182315	     20.45761576	     -7.45694517	     -6.97710234	    122.80955207	     99.93299608
      3.52000000	    -15.11068122	      1.28587851	     -0.60997107	     -0.51669691	      0.57418981	     -0.61598851	    101.50951419	     -8.02675512	      6.02088803	     96.83602254	      1.69010743	     20.99246976	      4.29198903	     -7.49999973	    101.25242741	    -11.01297654	      0.05320433	     96.14517620	      1.67804988	     17.53402821	     -1.57617485	     -7.49999973	    -24.50431811	      0.50837811	     -2.18605355	     18.05378719	    -11.34136606	     -4.17997649	    123.04885499	    103.63975420	     20.89407157	     -7.67623513	     -7.00900388	    122.96931453	    100.20205574
      3.53000000	    -16.20111996	      1.48032558	     -0.88552581	     -0.50934030	      0.57565649	     -0.61458667	    102.00507666	     -7.98826569	      5.83626460	     96.93886334	      1.69190234	     21.57173271	      4.35315132	     -7.49999973	    101.67861676	    -11.64515587	     -0.21839392	     96.29675186	      1.68069538	     17.85951686	     -1.51255513	     -7.49999973	    -23.88286236	     -0.08964997	     -1.93734608	     18.06444466	    -11.47021601	     -4.05140828	    123.23147080	    103.70124796	     21.20793506	     -7.86044174	     -7.14969043	    123.26757063	    100.28114313
      3.54000000	    -16.99886060	      1.96012008	     -1.02832429	     -0.50169652	      0.57793533	     -0.61390389	    102.26590787	     -8.17577606	      6.04525419	     97.16141909	      1.69578667	     22.83739538	      5.46665709	     -7.49999974	    101.63552560	    -12.05933076	     -0.79467442	     96.46982169	      1.68371602	     18.71516578	     -0.76497860	     -7.49999974	    -23.53570394	     -0.87698375	     -1.88821964	     18.00912873	    -11.46503329	     -4.08499265	    123.40416324	    103.88598312	     21.38880601	     -8.06818087	     -7.14451327	    123.50579583	    100.55337635
      3.55000000	    -17.58235249	      2.06718116	     -1.06106720	     -0.49447576	      0.58107234	     -0.61361058	    102.11966968	     -8.42204064	      5.87986784	     97.20315580	      1.69651511	     22.94369459	      5.45960339	     -7.49999974	    101.40741183	    -12.08755665	     -0.83636246	     96.50785835	      1.68437988	     18.77266269	     -0.77092634	     -7.49999974	    -23.39863372	     -1.16638189	     -1.81905105	     18.13552792	    -11.49481754	     -4.07238570	    123.46677816	    103.89623353	     21.50849463	     -8.11514200	     -7.18464187	    123.57519258	    100.56556027
      3.56000000	    -18.47386606	      2.65649520	     -0.60312812	     -0.48784647	      0.58396851	     -0.61385397	    102.42698711	     -9.01658886	      6.47128462	     97.30633615	      1.69831595	     24.67548074	      6.52235969	     -7.49999974	    101.04495793	    -11.41970386	     -1.45889462	     96.04548384	      1.67630992	     20.06083903	     -0.80515255	     -7.49999974	    -22.97695062	     -1.87854484	     -2.33120109	     17.97198243	    -11.41144157	     -4.03943368	    123.71435094	    104.08753891	     21.63879291	     -8.28045578	     -7.12692629	    124.02691919	    100.90208113
